<svg xmlns="http://www.w3.org/2000/svg" viewBox="-200 -200 400 400">
  <g transform="scale(1, -1)">
    <circle cx="0" cy="0" r="200" stroke="rgba(0,0,0,0)" stroke-width="1" fill="rgba(237,219,247,1)" />
    <polygon points="39.01806440204382,-196.15705607831478 76.53668647259474,-184.77590650320053 111.11404660344124,-166.2939224615693 141.42135623842478,-141.42135623842478 166.2939224615693,-111.11404660344124 184.77590650320053,-76.53668647259474 195.45953634381294,-41.31747879832983 186.29831585288048,-11.11698217689991 169.66453021764755,20.002641946077347 147.279220610857,47.27922061085701 120.00264194607735,69.66453021764755 88.88301782310009,86.29831585288048 55.11625796556473,96.54135046899319 20,100 -15.116257965564728,96.54135046899319 -48.88301782310009,86.29831585288048 -80.00264194607735,69.66453021764755 -107.27922061085701,47.27922061085701 -129.66453021764755,20.002641946077347 -146.29831585288048,-11.11698217689991 -156.5413504689932,-44.88374203443527 -160,-80 -156.5413504689932,-115.11625796556473 -152.74870147556067,-127.61894612014294 -141.42135623842478,-141.42135623842478 -111.11404660344124,-166.2939224615693 -76.53668647259474,-184.77590650320053 -39.01806440204382,-196.15705607831478 0,-200" stroke="rgba(0,0,0,0)" stroke-width="1" fill="rgba(255,206,0,1)" />
    <path d="M -19.573199999999986,-20.008800000000008 C -26.732399999999984,-20.008800000000008 -33.27959999999999,-15.19319999999999 -35.15799999999999,-7.948399999999992 C -35.5376,-6.473599999999976 -34.65639999999999,-4.974400000000003 -33.1816,-4.589200000000005 C -31.706799999999987,-4.209600000000023 -30.208,-5.0908000000000015 -29.822399999999988,-6.565600000000018 C -28.354000000000013,-12.2192 -22.565200000000004,-15.627599999999973 -16.91160000000002,-14.159199999999998 C -11.257600000000025,-12.690400000000011 -7.849199999999996,-6.901999999999987 -9.317600000000027,-1.2479999999999905 C -9.69720000000001,0.22640000000001237 -8.815999999999974,1.7255999999999858 -7.341200000000015,2.1111999999999966 C -5.866800000000012,2.490399999999994 -4.367599999999982,1.6096000000000004 -3.9820000000000277,0.1348000000000127 C -2.9051999999999794,-4.0260000000000105 -3.5108000000000175,-8.358400000000017 -5.689200000000028,-12.066399999999987 C -7.867599999999982,-15.774400000000014 -11.36160000000001,-18.405599999999993 -15.522400000000005,-19.488800000000026 C -16.874799999999993,-19.83760000000001 -18.226800000000026,-20.008800000000008 -19.560799999999972,-20.008800000000008 C -19.56493333333331,-20.008800000000008 -19.569066666666647,-20.008800000000008 -19.573199999999986,-20.008800000000008 Z" stroke="rgba(19,19,19,1)" stroke-width="2" fill="rgba(19,19,19,1)" />
    <path d="M 18.79880000000003,-10.061599999999999 C 15.965599999999995,-10.061599999999999 13.16919999999999,-9.309199999999976 10.66640000000001,-7.8344000000000165 C 6.958399999999983,-5.656000000000006 4.327200000000005,-2.162399999999991 3.2443999999999846,1.9987999999999886 C 2.8648000000000025,3.4731999999999914 3.745999999999981,4.972399999999993 5.220799999999997,5.358000000000004 C 6.695600000000013,5.737200000000001 8.194399999999973,4.8559999999999945 8.579999999999984,3.3815999999999917 C 9.29000000000002,0.6403999999999996 11.027600000000007,-1.6544000000000096 13.462800000000016,-3.0860000000000127 C 15.898399999999981,-4.517999999999972 18.749599999999987,-4.9220000000000255 21.49079999999998,-4.206000000000017 C 24.232399999999984,-3.4960000000000093 26.52679999999998,-1.7643999999999949 27.964800000000025,0.6767999999999859 C 29.396799999999985,3.1184000000000083 29.800400000000025,5.963600000000014 29.0908,8.704800000000006 C 28.71120000000002,10.179599999999994 29.592399999999998,11.678799999999995 31.067200000000014,12.064400000000006 C 32.54199999999997,12.443600000000004 34.04079999999999,11.562399999999997 34.4264,10.087999999999994 C 35.50319999999999,5.927199999999999 34.89760000000001,1.5947999999999922 32.7192,-2.113200000000006 C 30.54079999999999,-5.821199999999976 27.047199999999975,-8.452400000000011 22.886000000000024,-9.535599999999988 C 21.54000000000002,-9.884400000000028 20.175599999999974,-10.055600000000027 18.817200000000014,-10.055600000000027 C 18.811066666666687,-10.057600000000017 18.804933333333356,-10.059600000000009 18.79880000000003,-10.061599999999999 Z" stroke="rgba(19,19,19,1)" stroke-width="2" fill="rgba(19,19,19,1)" />
    <path d="M -7.103199999999998,-64.53480000000002 C -35.10312000000003,-64.53480000000002 -61.870640000000016,-53.83280000000002 -77.78784000000002,-35.26799999999997 C -78.87724000000001,-34.00119999999998 -78.4238,-32.28800000000001 -76.76968,-31.455600000000004 C -75.11504000000001,-30.61759999999998 -72.90348,-30.96640000000002 -71.81356,-32.23919999999998 C -53.55791999999999,-53.52080000000001 -19.72671999999999,-63.5188 12.378079999999972,-57.11239999999998 C 44.48288000000001,-50.70600000000002 67.74195999999999,-29.32639999999998 70.24784000000004,-3.9024 C 70.39864000000001,-2.3848000000000127 72.11724000000002,-1.2528000000000077 74.08960000000003,-1.362799999999993 C 76.06247999999998,-1.4791999999999916 77.53407999999997,-2.8008000000000095 77.39108000000003,-4.318399999999997 C 74.64651999999997,-32.091999999999985 49.24763999999997,-55.44799999999998 14.175720000000013,-62.44200000000001 C 7.103720000000016,-63.849199999999996 -0.03951999999998179,-64.53480000000002 -7.103199999999998,-64.53480000000002 Z" stroke="rgba(19,19,19,1)" stroke-width="2" fill="rgba(19,19,19,1)" />
    <circle cx="-80" cy="-15" r="18" stroke="rgba(0,0,0,0)" stroke-width="1" fill="rgba(255,153,153,0.5)" />
    <circle cx="80" cy="5" r="18" stroke="rgba(0,0,0,0)" stroke-width="1" fill="rgba(255,153,153,0.5)" />
  </g>
</svg>